<svg xmlns="http://www.w3.org/2000/svg" viewBox="0 0 76 76" fill="#296956" color="#296956"><rect x=".5" y=".5" width="75" height="75" rx="16" fill="#E3F3EA"/><svg x="13" y="13" width="50" height="50" viewBox="0 0 256 256"><path d="M96,240l16-80L48,136,160,16,144,96l64,24Z" opacity="0.28"/><path d="M215.79,118.17a8,8,0,0,0-5-5.66L153.18,90.9l14.66-73.33a8,8,0,0,0-13.69-7l-112,120a8,8,0,0,0,3,13l57.63,21.61L88.16,238.43a8,8,0,0,0,13.69,7l112-120A8,8,0,0,0,215.79,118.17ZM109.37,214l10.47-52.38a8,8,0,0,0-5-9.06L62,132.71l84.62-90.66L136.16,94.43a8,8,0,0,0,5,9.06l52.8,19.8Z"/></svg></svg>
